# Blender v2.93.2 OBJ File: ''
# www.blender.org
o Cube.001_Cube.003
v -0.200006 -0.200026 0.200083
v -0.200006 1.799974 0.200083
v -0.200006 -0.200026 -0.199917
v -0.200006 1.799974 -0.199917
v -0.100006 -0.200026 0.200083
v -0.100006 1.799974 0.200083
v -0.100006 -0.200026 -0.199917
v -0.100006 1.799974 -0.199917
v -0.200006 0.199974 0.200083
v -0.200006 0.199974 -0.199917
v -0.100006 0.199974 -0.199917
v -0.100006 0.199974 0.200083
v -0.200006 -0.000026 -0.199917
v -0.100006 -0.000026 -0.199917
v -0.100006 -0.000026 0.200083
v -0.200006 -0.000026 0.200083
v -0.200006 -0.200026 0.000083
v -0.200006 1.799974 0.000083
v -0.100006 -0.200026 0.000083
v -0.100006 1.799974 0.000083
v -0.100006 0.199974 0.000083
v -0.200006 0.199974 0.000083
v -0.200006 -0.000026 0.000083
v -0.100006 -0.000026 0.000083
v 0.199994 -0.200026 0.200083
v 0.199994 1.799974 0.200083
v 0.199994 -0.200026 -0.199917
v 0.199994 1.799974 -0.199917
v 0.099994 -0.200026 0.200083
v 0.099994 1.799974 0.200083
v 0.099994 -0.200026 -0.199917
v 0.099994 1.799974 -0.199917
v 0.199994 0.199974 0.200083
v 0.199994 0.199974 -0.199917
v 0.099994 0.199974 -0.199917
v 0.099994 0.199974 0.200083
v 0.199994 -0.000026 -0.199917
v 0.099994 -0.000026 -0.199917
v 0.099994 -0.000026 0.200083
v 0.199994 -0.000026 0.200083
v 0.199994 -0.200026 0.000083
v 0.199994 1.799974 0.000083
v 0.099994 -0.200026 0.000083
v 0.099994 1.799974 0.000083
v 0.099994 0.199974 0.000083
v 0.199994 0.199974 0.000083
v 0.199994 -0.000026 0.000083
v 0.099994 -0.000026 0.000083
vt 0.625000 0.125000
vt 0.425000 0.250000
vt 0.425000 0.125000
vt 0.625000 0.250000
vt 0.425000 0.500000
vt 0.625000 0.625000
vt 0.425000 0.750000
vt 0.425000 0.625000
vt 0.625000 0.750000
vt 0.425000 1.000000
vt 0.375000 0.625000
vt 0.125000 0.750000
vt 0.125000 0.625000
vt 0.875000 0.625000
vt 0.400000 1.000000
vt 0.400000 0.750000
vt 0.400000 0.625000
vt 0.400000 0.500000
vt 0.400000 0.250000
vt 0.400000 0.125000
vt 0.375000 0.250000
vt 0.375000 0.125000
vt 0.375000 0.500000
vt 0.375000 0.750000
vt 0.375000 1.000000
vt 0.400000 0.000000
vt 0.375000 0.000000
vt 0.425000 0.000000
vt 0.875000 0.500000
vt 0.625000 0.500000
vt 0.125000 0.500000
vt 0.625000 0.000000
vt 0.425000 0.250000
vt 0.625000 0.125000
vt 0.425000 0.125000
vt 0.425000 0.500000
vt 0.625000 0.250000
vt 0.425000 0.750000
vt 0.625000 0.625000
vt 0.425000 0.625000
vt 0.425000 1.000000
vt 0.625000 0.750000
vt 0.125000 0.750000
vt 0.375000 0.625000
vt 0.125000 0.625000
vt 0.875000 0.625000
vt 0.400000 1.000000
vt 0.400000 0.750000
vt 0.400000 0.625000
vt 0.400000 0.500000
vt 0.400000 0.250000
vt 0.400000 0.125000
vt 0.375000 0.250000
vt 0.375000 0.125000
vt 0.375000 0.500000
vt 0.375000 0.750000
vt 0.375000 1.000000
vt 0.400000 0.000000
vt 0.375000 0.000000
vt 0.425000 0.000000
vt 0.875000 0.500000
vt 0.625000 0.500000
vt 0.125000 0.500000
vt 0.625000 0.000000
vt 0.625000 1.000000
vt 0.875000 0.750000
vt 0.625000 1.000000
vt 0.875000 0.750000
vn -1.0000 0.0000 0.0000
vn 0.0000 0.0000 -1.0000
vn 1.0000 0.0000 0.0000
vn 0.0000 0.0000 1.0000
vn 0.0000 -1.0000 0.0000
vn 0.0000 1.0000 0.0000
s off
f 18/1/1 10/2/1 22/3/1
f 4/4/2 11/5/2 10/2/2
f 20/6/3 12/7/3 21/8/3
f 6/9/4 9/10/4 12/7/4
f 19/11/5 1/12/5 17/13/5
f 18/14/6 6/9/6 20/6/6
f 12/7/4 16/15/4 15/16/4
f 21/8/3 15/16/3 24/17/3
f 10/2/2 14/18/2 13/19/2
f 22/3/1 13/19/1 23/20/1
f 23/20/1 3/21/1 17/22/1
f 13/19/2 7/23/2 3/21/2
f 24/17/3 5/24/3 19/11/3
f 15/16/4 1/25/4 5/24/4
f 14/18/3 19/11/3 7/23/3
f 16/26/1 17/22/1 1/27/1
f 9/28/1 23/20/1 16/26/1
f 11/5/3 24/17/3 14/18/3
f 4/29/6 20/6/6 8/30/6
f 7/23/5 17/13/5 3/31/5
f 8/30/3 21/8/3 11/5/3
f 2/32/1 22/3/1 9/28/1
f 34/33/3 42/34/3 46/35/3
f 35/36/2 28/37/2 34/33/2
f 36/38/1 44/39/1 45/40/1
f 33/41/4 30/42/4 36/38/4
f 25/43/5 43/44/5 41/45/5
f 30/42/6 42/46/6 44/39/6
f 40/47/4 36/38/4 39/48/4
f 39/48/1 45/40/1 48/49/1
f 38/50/2 34/33/2 37/51/2
f 37/51/3 46/35/3 47/52/3
f 27/53/3 47/52/3 41/54/3
f 31/55/2 37/51/2 27/53/2
f 29/56/1 48/49/1 43/44/1
f 25/57/4 39/48/4 29/56/4
f 43/44/1 38/50/1 31/55/1
f 41/54/3 40/58/3 25/59/3
f 47/52/3 33/60/3 40/58/3
f 48/49/1 35/36/1 38/50/1
f 44/39/6 28/61/6 32/62/6
f 41/45/5 31/55/5 27/63/5
f 45/40/1 32/62/1 35/36/1
f 46/35/3 26/64/3 33/60/3
f 18/1/1 4/4/1 10/2/1
f 4/4/2 8/30/2 11/5/2
f 20/6/3 6/9/3 12/7/3
f 6/9/4 2/65/4 9/10/4
f 19/11/5 5/24/5 1/12/5
f 18/14/6 2/66/6 6/9/6
f 12/7/4 9/10/4 16/15/4
f 21/8/3 12/7/3 15/16/3
f 10/2/2 11/5/2 14/18/2
f 22/3/1 10/2/1 13/19/1
f 23/20/1 13/19/1 3/21/1
f 13/19/2 14/18/2 7/23/2
f 24/17/3 15/16/3 5/24/3
f 15/16/4 16/15/4 1/25/4
f 14/18/3 24/17/3 19/11/3
f 16/26/1 23/20/1 17/22/1
f 9/28/1 22/3/1 23/20/1
f 11/5/3 21/8/3 24/17/3
f 4/29/6 18/14/6 20/6/6
f 7/23/5 19/11/5 17/13/5
f 8/30/3 20/6/3 21/8/3
f 2/32/1 18/1/1 22/3/1
f 34/33/3 28/37/3 42/34/3
f 35/36/2 32/62/2 28/37/2
f 36/38/1 30/42/1 44/39/1
f 33/41/4 26/67/4 30/42/4
f 25/43/5 29/56/5 43/44/5
f 30/42/6 26/68/6 42/46/6
f 40/47/4 33/41/4 36/38/4
f 39/48/1 36/38/1 45/40/1
f 38/50/2 35/36/2 34/33/2
f 37/51/3 34/33/3 46/35/3
f 27/53/3 37/51/3 47/52/3
f 31/55/2 38/50/2 37/51/2
f 29/56/1 39/48/1 48/49/1
f 25/57/4 40/47/4 39/48/4
f 43/44/1 48/49/1 38/50/1
f 41/54/3 47/52/3 40/58/3
f 47/52/3 46/35/3 33/60/3
f 48/49/1 45/40/1 35/36/1
f 44/39/6 42/46/6 28/61/6
f 41/45/5 43/44/5 31/55/5
f 45/40/1 44/39/1 32/62/1
f 46/35/3 42/34/3 26/64/3
